# xmcd CD database file
#
# Track frame offsets:
#	150
#	13156
#	28705
#	41478
#	56219
#
# Disc length: 928 seconds
#
# Revision: 0
# Processed by: cddbd v1.5.2PL0 Copyright (c) Steve Scherf et al.
# Submitted via: CDex 1.81
#
DISCID=3d039e05
DTITLE=Country Rudi - Live!
DYEAR=2001
DGENRE=Blues
TTITLE0=Tourenkarten Blues
TTITLE1=Long Ways from Home Blues
TTITLE2=Baby, whats wring with you
TTITLE3=Run, Get A Bucket
TTITLE4=Lisa's Blues
EXTD=YEAR: 2001
EXTT0=
EXTT1=
EXTT2=
EXTT3=
EXTT4=
PLAYORDER=
